<?xml version="1.0" encoding="utf-8"?>
<!-- Generator: Adobe Illustrator 23.0.0, SVG Export Plug-In . SVG Version: 6.00 Build 0)  -->
<svg version="1.1" id="Layer_1" xmlns="http://www.w3.org/2000/svg" xmlns:xlink="http://www.w3.org/1999/xlink" x="0px" y="0px"
	 viewBox="0 0 512 512" style="enable-background:new 0 0 512 512;" xml:space="preserve">
<path d="M132.8,478h268V66h-32V34H184.3l-83.5,83.5V446h32L132.8,478z M368.8,78h20v388h-244v-20h224V78z M180.8,54.5V114h-59.5
	L180.8,54.5z M112.8,434V126h80V46h164v388H112.8z"/>
<path d="M138.8,146h96v12h-96V146z"/>
<path d="M138.8,178h96v12h-96V178z"/>
<path d="M138.8,210h192v12h-192L138.8,210z"/>
<path d="M138.8,242h192v12h-192L138.8,242z"/>
<path d="M170.8,274h128v12h-128L170.8,274z"/>
<path d="M272.8,344c0-21-17-38-38-38s-38,17-38,38v34h-16v36h108v-36h-16V344z M208.8,344c0-14.3,11.7-26,26-26s26,11.7,26,26v34
	h-52V344z M276.8,390v12h-84v-12H276.8z"/>
<path d="M240.8,330h-12v10h-10v12h10v18h12v-18h10v-12h-10V330z"/>
<path d="M254.8,190h76V98h-76L254.8,190z M266.8,110h52v68h-52V110z"/>
</svg>
