<?xml version="1.0" encoding="iso-8859-1"?>
<!-- Generator: Adobe Illustrator 19.0.0, SVG Export Plug-In . SVG Version: 6.00 Build 0)  -->
<svg version="1.1" id="Capa_1" xmlns="http://www.w3.org/2000/svg" xmlns:xlink="http://www.w3.org/1999/xlink" x="0px" y="0px"
	 viewBox="0 0 512 512" style="enable-background:new 0 0 512 512;" xml:space="preserve">
<g>
	<g>
		<path d="M346.209,77.859c-2.45-3.343-7.142-4.067-10.484-1.62c-3.341,2.447-4.066,7.141-1.618,10.482
			c13.492,18.418,20.008,41.178,18.349,64.084c-1.676,23.138-11.645,44.926-28.071,61.353
			c-18.856,18.855-43.616,28.282-68.384,28.28c-24.762-0.002-49.533-9.429-68.384-28.28c-37.707-37.707-37.707-99.061,0-136.768
			c11.054-11.054,24.542-19.168,39.23-23.814c-1.539,3.711-2.394,7.775-2.394,12.037c0,17.396,14.152,31.548,31.548,31.548
			c12.976,0,23.532-10.556,23.532-23.532c0-4.142-3.358-7.5-7.5-7.5c-4.142,0-7.5,3.358-7.5,7.5c0,4.705-3.828,8.532-8.532,8.532
			c-9.125,0-16.548-7.423-16.548-16.548c0-8.955,7.154-16.253,16.045-16.523c20.669-0.104,40.89,6.37,57.556,18.578
			c3.342,2.448,8.035,1.723,10.482-1.619c2.448-3.341,1.723-8.034-1.618-10.482c-21.287-15.592-47.575-23.124-74.032-21.208
			c-26.73,1.936-51.901,13.452-70.875,32.426c-43.556,43.555-43.556,114.425,0,157.981c21.778,21.778,50.384,32.667,78.991,32.667
			s57.213-10.889,78.991-32.667c18.974-18.974,30.489-44.145,32.425-70.875C369.334,125.438,361.802,99.146,346.209,77.859z"/>
	</g>
</g>
<g>
	<g>
		<path d="M207.903,120.242c-4.142,0-7.5,3.357-7.5,7.5v8.016c0,4.143,3.358,7.5,7.5,7.5c4.142,0,7.5-3.357,7.5-7.5v-8.016
			C215.403,123.599,212.045,120.242,207.903,120.242z"/>
	</g>
</g>
<g>
	<g>
		<path d="M304.097,120.242c-4.142,0-7.5,3.357-7.5,7.5v8.016c0,4.143,3.358,7.5,7.5,7.5c4.142,0,7.5-3.358,7.5-7.5v-8.016
			C311.597,123.599,308.239,120.242,304.097,120.242z"/>
	</g>
</g>
<g>
	<g>
		<path d="M264.016,152.308h-16.032c-19.606,0-35.557,15.95-35.557,35.557c0,14.313,8.637,27.193,21.69,32.726
			c5.037,6.586,12.97,10.845,21.883,10.845c8.918,0,16.855-4.264,21.892-10.856c13.024-5.534,21.681-18.469,21.681-32.716
			C299.573,168.258,283.622,152.308,264.016,152.308z M256,216.436c-6.915,0-12.541-5.625-12.541-12.54s5.625-12.541,12.541-12.541
			c6.916,0,12.541,5.626,12.541,12.541C268.541,210.81,262.915,216.436,256,216.436z M282.57,196.662
			c-3.186-11.687-13.887-20.307-26.57-20.307c-12.687,0-23.391,8.625-26.573,20.317c-1.283-2.7-2-5.694-2-8.809
			c0-11.335,9.222-20.556,20.557-20.556h16.032c11.335,0,20.557,9.222,20.557,20.557C284.573,190.967,283.856,193.96,282.57,196.662
			z"/>
	</g>
</g>
<g>
	<g>
		<path d="M256,0c-79.277,0-143.774,64.497-143.774,143.774v224.451C112.226,447.503,176.723,512,256,512
			s143.774-64.497,143.774-143.774V143.774C399.774,64.497,335.277,0,256,0z M256,497c-71.006,0-128.774-57.768-128.774-128.774
			V260.574c27.295,34.318,87.332,46.229,141.967,57.06c57.701,11.439,112.201,22.244,115.42,55.211
			c0.013,0.13,0.037,0.256,0.056,0.383C382.03,441.924,325.331,497,256,497z M384.774,215.919c0,14.977-4.621,27.434-14.126,38.082
			c-2.759,3.09-2.49,7.831,0.6,10.59c1.431,1.277,3.214,1.905,4.992,1.905c2.062,0,4.116-0.846,5.597-2.505
			c1.028-1.151,1.996-2.332,2.937-3.526v81.484c-18.989-17.971-53.876-27.004-92.284-34.933
			c20.832-5.116,41.508-11.503,58.643-20.292c3.686-1.891,5.141-6.411,3.25-10.096c-1.891-3.687-6.411-5.14-10.097-3.25
			c-24.752,12.697-58.412,20.259-88.292,26.324c-65.799-13.351-128.769-29.895-128.769-83.781v-72.145
			C127.226,72.768,184.994,15,256,15s128.774,57.768,128.774,128.774V215.919z"/>
	</g>
</g>
<g>
</g>
<g>
</g>
<g>
</g>
<g>
</g>
<g>
</g>
<g>
</g>
<g>
</g>
<g>
</g>
<g>
</g>
<g>
</g>
<g>
</g>
<g>
</g>
<g>
</g>
<g>
</g>
<g>
</g>
</svg>
